<svg width="24" height="24" viewBox="0 0 24 24" fill="none" xmlns="http://www.w3.org/2000/svg">
<g clip-path="url(#clip0_660_2080)">
<path d="M17.3353 5.62256L17.2292 5.5165L17.1231 5.62256L11.8143 10.9314L6.50549 5.62256L6.39942 5.5165L6.29336 5.62256L5.30883 6.60709L5.20276 6.71316L5.30883 6.81922L10.6177 12.1281L5.30883 17.4369L5.20276 17.5429L5.30883 17.649L6.29336 18.6335L6.39942 18.7396L6.50549 18.6335L11.8143 13.3247L17.1231 18.6335L17.2292 18.7396L17.3353 18.6335L18.3198 17.649L18.4259 17.5429L18.3198 17.4369L13.011 12.1281L18.3198 6.81922L18.4259 6.71316L18.3198 6.60709L17.3353 5.62256Z" fill="#1A1A1A" stroke="#1A1A1A" stroke-width="0.3"/>
</g>
<defs>
<clipPath id="clip0_660_2080">
<rect width="16.708" height="16.708" fill="white" transform="translate(0 12.1281) rotate(-45)"/>
</clipPath>
</defs>
</svg>
