<svg width="22" height="20" viewBox="0 0 22 20" fill="none" xmlns="http://www.w3.org/2000/svg">
<g clip-path="url(#clip0_660_2209)">
<path d="M11.0001 0C8.97154 0 6.98857 0.58649 5.30191 1.6853C3.61525 2.78412 2.30066 4.3459 1.52438 6.17317C0.748096 8.00043 0.544985 10.0111 0.940731 11.9509C1.33648 13.8907 2.31331 15.6725 3.74769 17.0711C5.18207 18.4696 7.00959 19.422 8.99914 19.8079C10.9887 20.1937 13.0509 19.9957 14.925 19.2388C16.7991 18.4819 18.401 17.2002 19.528 15.5557C20.6549 13.9112 21.2565 11.9778 21.2565 10C21.2565 7.34784 20.1759 4.8043 18.2524 2.92893C16.329 1.05357 13.7202 0 11.0001 0V0ZM15.0231 12.7442L13.8146 13.9225L11.0001 11.1783L8.18554 13.9225L6.97699 12.7442L9.79152 10L6.97699 7.25583L8.18554 6.0775L11.0001 8.82167L13.8146 6.0775L15.0231 7.25583L12.2086 10L15.0231 12.7442Z" fill="#1A1A1A"/>
</g>
<defs>
<clipPath id="clip0_660_2209">
<rect width="20.5128" height="20" fill="white" transform="translate(0.743652)"/>
</clipPath>
</defs>
</svg>
